<svg width="24" height="24" viewBox="0 0 24 24" fill="none" xmlns="http://www.w3.org/2000/svg">
<path fill-rule="evenodd" clip-rule="evenodd" d="M0 8.4C0 3.76081 3.76081 0 8.4 0H18C18.6627 0 19.2 0.537258 19.2 1.2C19.2 1.86274 18.6627 2.4 18 2.4H8.4C5.08629 2.4 2.4 5.08629 2.4 8.4V18C2.4 18.6627 1.86274 19.2 1.2 19.2C0.537258 19.2 0 18.6627 0 18V8.4Z" fill="#FF7551"/>
<path d="M4.8 9.6C4.8 6.94903 6.94903 4.8 9.6 4.8H19.2C21.851 4.8 24 6.94903 24 9.6V19.2C24 21.851 21.851 24 19.2 24H9.6C6.94903 24 4.8 21.851 4.8 19.2V9.6Z" fill="#FF7551"/>
</svg>
