<svg width="8" height="11" viewBox="0 0 8 11" fill="none" xmlns="http://www.w3.org/2000/svg">
<path fill-rule="evenodd" clip-rule="evenodd" d="M4.33761 10.8724C5.30197 10.0328 8 7.386 8 4.05538C8 2.02769 6.75 0 4 0C1.25 0 0 2.02769 0 4.05538C0 7.386 2.69803 10.0328 3.66239 10.8724C3.85774 11.0425 4.14226 11.0425 4.33761 10.8724ZM4 5.57615C4.94677 5.57615 5.71429 4.82719 5.71429 3.9033C5.71429 2.97942 4.94677 2.23046 4 2.23046C3.05323 2.23046 2.28571 2.97942 2.28571 3.9033C2.28571 4.82719 3.05323 5.57615 4 5.57615Z" fill="#757686"/>
</svg>
