<svg width="14" height="11" viewBox="0 0 14 11" fill="none" xmlns="http://www.w3.org/2000/svg">
<path d="M1 4.45091C0.447715 4.45091 0 4.9206 0 5.5C0 6.07939 0.447716 6.54909 1 6.54909H10.5825L8.04692 9.20909C7.6564 9.61879 7.6564 10.283 8.04692 10.6927C8.43745 11.1024 9.07061 11.1024 9.46113 10.6927L13.6568 6.29106C13.8671 6.09874 14 5.81565 14 5.5C14 5.18435 13.8671 4.90125 13.6568 4.70893L9.46113 0.307271C9.07061 -0.102424 8.43745 -0.102424 8.04692 0.307271C7.6564 0.716965 7.6564 1.38121 8.04692 1.79091L10.5825 4.45091H1Z" fill="white"/>
</svg>
