<svg width="24" height="18" viewBox="0 0 24 18" fill="none" xmlns="http://www.w3.org/2000/svg">
<path d="M2.52632 0C1.13107 0 0 1.15127 0 2.57143V15.4286C0 16.8487 1.13107 18 2.52632 18H20.2105C21.6058 18 22.7368 16.8487 22.7368 15.4286V12.8571H16.4211C14.3282 12.8571 12.6316 11.1302 12.6316 9C12.6316 6.86976 14.3282 5.14286 16.4211 5.14286H22.7368V2.57143C22.7368 1.15127 21.6058 0 20.2105 0H2.52632Z" fill="#FF7551"/>
<path fill-rule="evenodd" clip-rule="evenodd" d="M16.4211 6.42857C15.0258 6.42857 13.8947 7.57984 13.8947 9C13.8947 10.4202 15.0258 11.5714 16.4211 11.5714H22.7368C23.4345 11.5714 24 10.9958 24 10.2857V7.71429C24 7.00421 23.4345 6.42857 22.7368 6.42857H16.4211ZM17.6842 10.2857C18.3818 10.2857 18.9474 9.71008 18.9474 9C18.9474 8.28992 18.3818 7.71429 17.6842 7.71429C16.9866 7.71429 16.4211 8.28992 16.4211 9C16.4211 9.71008 16.9866 10.2857 17.6842 10.2857Z" fill="#FF7551"/>
</svg>
