<svg width="50" height="30" viewBox="0 0 50 30" fill="none" xmlns="http://www.w3.org/2000/svg">
<path d="M7.72 8.04L9.58 19.14L15.38 8.04H18.36L10.78 22H7.38L4.72 8.04H7.72ZM22.8388 8.04L20.3788 22H17.5588L20.0388 8.04H22.8388ZM28.4252 22.14C27.0252 22.14 25.8718 21.8267 24.9652 21.2C24.0718 20.56 23.6252 19.6667 23.6252 18.52C23.6252 18.4 23.6385 18.22 23.6652 17.98H26.5252C26.4718 18.54 26.6185 19 26.9652 19.36C27.3252 19.72 27.8452 19.9 28.5252 19.9C29.2052 19.9 29.7385 19.76 30.1252 19.48C30.5252 19.1867 30.7252 18.7733 30.7252 18.24C30.7252 17.7467 30.5185 17.3533 30.1052 17.06C29.7052 16.7667 29.0718 16.44 28.2052 16.08C27.4052 15.7467 26.7518 15.44 26.2452 15.16C25.7518 14.88 25.3252 14.4933 24.9652 14C24.6185 13.4933 24.4452 12.86 24.4452 12.1C24.4452 11.2333 24.6652 10.48 25.1052 9.84C25.5585 9.2 26.1718 8.70667 26.9452 8.36C27.7318 8.01333 28.6252 7.84 29.6252 7.84C30.6118 7.84 31.4652 8.00667 32.1852 8.34C32.9185 8.66 33.4652 9.12 33.8252 9.72C34.1985 10.32 34.3585 11.02 34.3052 11.82H31.3252L31.3452 11.6C31.3452 11.16 31.1785 10.8 30.8452 10.52C30.5252 10.24 30.0718 10.1 29.4852 10.1C28.8585 10.1 28.3518 10.2467 27.9652 10.54C27.5785 10.8333 27.3852 11.2333 27.3852 11.74C27.3852 12.0733 27.4918 12.3667 27.7052 12.62C27.9318 12.86 28.2052 13.0733 28.5252 13.26C28.8452 13.4333 29.3052 13.66 29.9052 13.94C30.6918 14.2867 31.3385 14.6133 31.8452 14.92C32.3518 15.2267 32.7852 15.6333 33.1452 16.14C33.5052 16.6467 33.6852 17.2667 33.6852 18C33.6852 18.8 33.4652 19.5133 33.0252 20.14C32.5985 20.7667 31.9852 21.26 31.1852 21.62C30.3985 21.9667 29.4785 22.14 28.4252 22.14ZM44.3722 19.34H38.7922L37.4122 22H34.4722L41.9722 8.02H45.2322L47.7722 22H44.8122L44.3722 19.34ZM44.0122 17.16L43.0122 11.24L39.9322 17.16H44.0122Z" fill="white"/>
<path d="M5.28 8H0C1.45018 9.07772 5.76 11.6842 6 13L5.28 8Z" fill="white"/>
</svg>
